<?xml version="1.0" encoding="utf-8"?>
<!-- Generator: Adobe Illustrator 21.0.2, SVG Export Plug-In . SVG Version: 6.00 Build 0)  -->
<svg version="1.1" id="Layer_1" xmlns="http://www.w3.org/2000/svg" xmlns:xlink="http://www.w3.org/1999/xlink" x="0px" y="0px"
	 viewBox="0 0 300 300" style="enable-background:new 0 0 300 300;" xml:space="preserve">
<style type="text/css">
	.st0{fill:#4091D3;}
	.st1{fill:#FFFFFF;}
</style>
<circle class="st0" cx="150" cy="150" r="150"/>
<path class="st1" d="M228.3,157.7l-0.1-0.2l0,0c-0.1-0.2-0.1-0.3-0.2-0.5l0,0l0,0l0,0l0,0l0,0l0,0l0,0c-1.9-6.3-5.6-11.9-10.7-16.1
	l0,0c-0.2-0.1-0.3-0.2-0.5-0.4l-0.2-0.2l-0.2-0.1l-0.1-0.1l-0.1-0.1l-0.1-0.1l-0.1-0.1l-0.1-0.1l-0.2-0.1l-0.1,0l-0.2-0.1l-0.1,0
	l-0.2-0.1l-0.1,0l-0.1-0.1l-0.1-0.1l-0.2-0.1l-0.1-0.1l-0.2-0.1l-0.1-0.1l-0.2-0.1l-0.1-0.1l-0.2-0.1l-0.1-0.1l-0.2-0.1l-0.1-0.1
	l-0.2-0.1l-0.1-0.1l-0.2-0.1l-0.1-0.1l-0.2-0.1l-0.1-0.1l-0.2-0.1l-0.1-0.1l-0.2-0.1l-0.1-0.1l-0.2-0.1l-0.1-0.1l-0.2-0.1l-0.1-0.1
	l-0.2-0.1l-0.1-0.1l-0.2-0.1l-0.1-0.1l-0.2-0.1l-0.1-0.1l-0.2-0.1l-0.1-0.1l0,0c-0.1-0.1-0.2-0.1-0.3-0.2c-4.6-2.4-9.6-3.9-14.7-4.6
	c1.4-1.5,2.7-3.2,3.9-4.9l0.2-0.3l0,0l0.1-0.1l0.1-0.2l0.1-0.1l0.1-0.2l0.1-0.1l0.1-0.2l0.1-0.1l0.1-0.2l0.1-0.1l0.1-0.2l0.1-0.1
	l0.1-0.2l0.1-0.1l0.1-0.2l0-0.1l0.1-0.2l0-0.1l0.1-0.2l0-0.1l0.1-0.2l0-0.1l0.1-0.2l0-0.1l0.1-0.2l0-0.1l0.1-0.2l0-0.1l0.1-0.2
	l0-0.1l0.1-0.1l0-0.1l0.1-0.1l0-0.1l0.1-0.1l0-0.1l0.1-0.1l0-0.1l0.1-0.1l0-0.1l0.1-0.1l0-0.1l0.1-0.1l0-0.1l0.1-0.1l0-0.1l0.1-0.2
	l0.1-0.2c0.1-0.2,0.1-0.3,0.2-0.5l0,0c2.2-5.4,2.7-11.4,1.5-17.1l0,0l0,0l0,0l0,0l0,0l0,0l0,0l0,0c0-0.2-0.1-0.3-0.1-0.5v0l0,0l0,0
	l0,0l0,0l-0.1-0.1c0-0.2-0.1-0.4-0.2-0.7c0-0.2-0.1-0.5-0.2-0.7l-0.1-0.2l0,0c0-0.2-0.1-0.3-0.1-0.5l0,0l0,0l0,0l0,0l0,0l0,0l0,0
	c-1.7-5.6-5-10.6-9.5-14.3l0,0c-0.1-0.1-0.3-0.2-0.4-0.3l-0.2-0.1l-0.1-0.1l-0.1-0.1l-0.1-0.1l-0.1-0.1l-0.1-0.1l-0.1-0.1l-0.1-0.1
	l-0.1-0.1l-0.1-0.1l-0.1-0.1l-0.1-0.1l-0.1-0.1l-0.1-0.1l-0.1,0l-0.1-0.1l-0.1,0l-0.1-0.1l-0.1,0l-0.2-0.1l-0.1,0l-0.2-0.1l-0.1,0
	l-0.2-0.1l-0.1,0l-0.2-0.1l-0.1,0l-0.2-0.1l-0.1,0l-0.2-0.1l-0.1,0l-0.2-0.1l-0.1,0l-0.2-0.1l-0.1-0.1l-0.2-0.1l-0.1-0.1l-0.2-0.1
	l-0.1-0.1l-0.2-0.1l-0.1-0.1l-0.2-0.1l-0.1-0.1l-0.2-0.1l-0.1-0.1l-0.2-0.1l-0.1-0.1l0,0l-0.3-0.2c-8.8-4.6-19.9-5.9-31.1-3.1
	l-2.9,0.7l-7.4-28.7l-17.1,4.4l7.4,28.6l-13.7,3.5l-7.4-28.5l-17.1,4.4l7.4,28.6l-35.3,9.1l4.7,18.2l14.2-3.6
	c4.7-1.2,9.5,1.6,10.7,6.3c0,0,0,0,0,0l0,0l19.7,76.7c0.8,3.1-1.1,6.3-4.2,7.1l-12.5,3.2l0.7,21.7l35.2-9.1l7.4,28.6l17.1-4.4
	l-7.4-28.6l13.7-3.5l7.4,28.6l17.1-4.4l-7.4-28.7c2.9-0.8,5.4-1.4,7.1-1.8c12.6-3.3,22.9-10.7,29-19.9l0.2-0.3l0,0l0.1-0.1l0.1-0.2
	l0.1-0.1l0.1-0.2l0.1-0.1l0.1-0.2l0.1-0.1l0.1-0.2l0.1-0.1l0.1-0.2l0.1-0.1l0.1-0.2l0.1-0.1l0.1-0.2l0.1-0.1l0.1-0.2l0.1-0.1
	l0.1-0.2l0.1-0.1l0.1-0.2l0.1-0.1l0.1-0.2l0.1-0.1l0.1-0.2l0.1-0.1l0.1-0.2l0-0.1l0.1-0.2l0-0.1l0.1-0.2l0-0.1l0.1-0.2l0-0.1
	l0.1-0.2l0-0.1l0.1-0.2l0-0.1l0.1-0.2l0-0.1l0.1-0.2l0-0.1l0.1-0.2l0-0.1l0.1-0.2l0-0.1l0.1-0.2l0.1-0.2c0.1-0.2,0.2-0.4,0.2-0.5
	l0,0c2.5-6.1,3.1-12.8,1.7-19.3l0,0l0,0l0,0l0,0l0,0l0,0l0,0l0,0c0-0.2-0.1-0.3-0.1-0.5v0l0,0l0,0l0,0l0,0l0,0l0,0l0,0l0,0l0,0l0,0
	l0,0l0,0l0,0l0-0.1c-0.1-0.3-0.1-0.5-0.2-0.8C228.4,158.2,228.3,158,228.3,157.7z M127.8,106.3c2.9-0.7,15-3.8,19-4.8
	c6.3-1.6,12.6-1,17.4,1.4l0.2,0.1l0,0l0.1,0l0.1,0.1l0,0l0.1,0.1l0,0l0.1,0.1l0,0l0.1,0.1l0,0l0.1,0.1l0,0l0.1,0.1l0,0l0.1,0.1l0,0
	l0.1,0.1l0,0l0.1,0.1l0,0l0.1,0.1l0,0l0.1,0.1l0,0l0.1,0.1l0,0l0.1,0l0,0l0.1,0l0,0l0.1,0l0,0l0.1,0l0,0l0.1,0l0,0l0.1,0l0,0l0.1,0
	l0,0l0.1,0l0,0l0.1,0l0,0l0.1,0.1l0,0l0.1,0l0.1,0.1c0.1,0,0.2,0.1,0.2,0.2l0,0c2.5,1.9,4.3,4.5,5.2,7.5l0,0l0,0
	c0,0.1,0.1,0.2,0.1,0.2l0,0l0,0.1c0,0.1,0.1,0.2,0.1,0.4c0,0.1,0.1,0.3,0.1,0.4l0,0.1l0,0c0,0.1,0,0.2,0.1,0.3l0,0l0,0
	c0.6,3.1,0.3,6.2-1,9.1l0,0l-0.1,0.3l-0.1,0.1l0,0.1l0,0l0,0.1l0,0l0,0.1l0,0l0,0.1l0,0l0,0.1l0,0l0,0.1l0,0l0,0.1l0,0l0,0.1l0,0
	l0,0.1l0,0l0,0.1l0,0l0,0.1l0,0l-0.1,0.1l0,0l-0.1,0.1l0,0l-0.1,0.1l0,0l-0.1,0.1l0,0l-0.1,0.1l0,0l-0.1,0.1l0,0l-0.1,0.1l0,0
	l-0.1,0.1l0,0l-0.1,0.1l0,0l-0.1,0.1l0,0l-0.1,0.1l0,0l-0.1,0.1l-0.1,0.1l0,0l-0.1,0.1c-3.1,4.4-8.3,8-14.6,9.6
	c-4,1-16,4.2-18.9,4.9L127.8,106.3z M194.7,165.2L194.7,165.2L194.7,165.2c0.1,0.2,0.1,0.3,0.1,0.4l0,0l0,0l0,0l0,0l0,0l0,0l0,0
	c0.7,3.4,0.2,6.9-1.4,9.9l0,0l-0.2,0.3l-0.1,0.1l-0.1,0.1l0,0l0,0.1l0,0l0,0.1l0,0l-0.1,0.1l0,0l-0.1,0.1l0,0l-0.1,0.1l0,0l-0.1,0.1
	l0,0l-0.1,0.1l0,0l-0.1,0.1l0,0l-0.1,0.1l0,0l-0.1,0.1l0,0l-0.1,0.1l0,0l-0.1,0.1l0,0l-0.1,0.1l0,0l-0.1,0.1l0,0l-0.1,0.1l0,0
	l-0.1,0.1l0,0.1l-0.1,0.1l0,0.1l-0.1,0.1l0,0.1l-0.1,0.1l0,0.1l-0.1,0.1l0,0.1l-0.1,0.1l0,0.1l-0.1,0.1l-0.1,0.1l0,0l-0.1,0.2
	c-3.8,4.9-10,8.9-17.5,10.8c-4.7,1.2-19,4.9-22.4,5.8l-9.7-37.8c3.5-0.9,17.8-4.5,22.5-5.7c7.5-1.9,14.8-1.4,20.5,1l0.2,0.1l0,0
	l0.1,0l0.1,0.1l0.1,0l0.1,0.1l0.1,0l0.1,0.1l0.1,0l0.1,0.1l0,0l0.1,0.1l0,0l0.1,0.1l0,0l0.1,0.1l0,0l0.1,0.1l0,0l0.1,0.1l0,0
	l0.1,0.1l0,0l0.1,0.1l0,0l0.1,0.1l0,0l0.1,0.1l0,0l0.1,0.1l0,0l0.1,0.1l0,0l0.1,0.1l0,0l0.1,0.1l0,0l0.1,0.1l0,0l0.1,0.1l0,0
	l0.1,0.1l0,0l0.1,0.1l0,0l0.1,0l0,0l0.1,0.1l0.1,0.1c0.1,0.1,0.2,0.1,0.3,0.2l0,0c2.8,1.9,4.9,4.8,6,8l0,0l0,0.1
	c0,0.1,0.1,0.2,0.1,0.3l0,0l0,0.1c0,0.1,0.1,0.3,0.1,0.4C194.7,164.8,194.7,165,194.7,165.2L194.7,165.2z"/>
</svg>
