<?xml version="1.0" encoding="utf-8"?>
<!-- Generator: Adobe Illustrator 21.0.2, SVG Export Plug-In . SVG Version: 6.00 Build 0)  -->
<svg version="1.1" id="Layer_1" xmlns="http://www.w3.org/2000/svg" xmlns:xlink="http://www.w3.org/1999/xlink" x="0px" y="0px"
	 viewBox="0 0 300 300" style="enable-background:new 0 0 300 300;" xml:space="preserve">
<style type="text/css">
	.st0{fill:#4091D3;}
	.st1{fill:#FFFFFF;}
</style>
<circle class="st0" cx="150" cy="150" r="150"/>
<g>
	<path class="st1" d="M111.2,134.1L150,95.3l38.8,38.8l22.6-22.6L150,50.1l-61.4,61.4L111.2,134.1 M50.1,150l22.6-22.6L95.2,150
		l-22.6,22.6L50.1,150z M111.2,165.9l38.8,38.8l38.8-38.8l22.6,22.6l0,0L150,249.9l-61.4-61.4l0,0L111.2,165.9 M204.8,150l22.6-22.6
		l22.6,22.6l-22.6,22.6L204.8,150z"/>
	<path class="st1" d="M172.9,150L172.9,150L150,127.1L133.1,144h0l-1.9,1.9l-4,4l0,0l0,0l22.9,22.9L172.9,150L172.9,150L172.9,150"
		/>
</g>
</svg>
