<?xml version="1.0" encoding="utf-8"?>
<!-- Generator: Adobe Illustrator 21.0.2, SVG Export Plug-In . SVG Version: 6.00 Build 0)  -->
<svg version="1.1" id="Layer_1" xmlns="http://www.w3.org/2000/svg" xmlns:xlink="http://www.w3.org/1999/xlink" x="0px" y="0px"
	 viewBox="0 0 300 300" style="enable-background:new 0 0 300 300;" xml:space="preserve">
<style type="text/css">
	.st0{fill:#4091D3;}
	.st1{fill:#FFFFFF;}
</style>
<circle class="st0" cx="150" cy="150" r="150"/>
<path class="st1" d="M215.3,130.4c3.1-21.1-12.9-32.4-34.8-39.9l7.1-28.5l-17.4-4.3l-6.9,27.8c-4.6-1.1-9.3-2.2-13.9-3.3l7-28
	L139,49.7l-7.1,28.5c-3.8-0.9-7.5-1.7-11.1-2.6l0-0.1l-24-6l-4.6,18.6c0,0,12.9,3,12.6,3.1c7,1.8,8.3,6.4,8.1,10.1l-8.1,32.5
	c0.5,0.1,1.1,0.3,1.8,0.6l-1.8-0.5l-11.4,45.5c-0.9,2.1-3,5.3-8,4.1c0.2,0.3-12.6-3.2-12.6-3.2l-8.6,19.9l22.6,5.6
	c4.2,1.1,8.3,2.2,12.4,3.2l-7.2,28.9l17.4,4.3l7.1-28.6c4.7,1.3,9.3,2.5,13.8,3.6l-7.1,28.4l17.4,4.3l7.2-28.8
	c29.6,5.6,51.9,3.3,61.3-23.4c7.6-21.6-0.4-34-16-42.1C204.5,153.2,213.1,145.8,215.3,130.4L215.3,130.4z M175.6,186
	c-5.4,21.6-41.7,9.9-53.5,7l9.5-38.2C143.5,157.7,181.2,163.5,175.6,186L175.6,186z M181,130c-4.9,19.6-35.1,9.7-44.9,7.2l8.6-34.7
	C154.5,105,186.1,109.6,181,130z"/>
</svg>
