<?xml version="1.0" encoding="utf-8"?>
<!-- Generator: Adobe Illustrator 21.0.2, SVG Export Plug-In . SVG Version: 6.00 Build 0)  -->
<svg version="1.1" id="Layer_1" xmlns="http://www.w3.org/2000/svg" xmlns:xlink="http://www.w3.org/1999/xlink" x="0px" y="0px"
	 viewBox="0 0 348.8 374.5" style="enable-background:new 0 0 348.8 374.5;" xml:space="preserve">
<style type="text/css">
	.st0{fill:#F7D2C4;stroke:#F9CCB6;stroke-width:3;stroke-miterlimit:10;}
	.st1{fill:#A4B2BC;stroke:#A0AFBA;stroke-width:2;stroke-miterlimit:10;}
	.st2{fill:#A7B7C5;}
	.st3{fill:none;stroke:#000000;stroke-width:3;stroke-miterlimit:10;}
	.st4{fill:#F9CCB6;stroke:#F9CCB6;stroke-width:3;stroke-miterlimit:10;}
	.st5{fill:#F99178;}
	.st6{fill:#4091D3;}
	.st7{fill:none;stroke:#6B6463;stroke-width:9;stroke-linecap:round;stroke-miterlimit:10;}
	.st8{fill:#585AA8;stroke:#878181;stroke-width:7;stroke-linejoin:round;stroke-miterlimit:10;}
</style>
<circle class="st0" cx="179.1" cy="190.5" r="121"/>
<path class="st1" d="M109,153c-3.8-24.6-5.1-49.5-4-74.4C54.2,76.9,19.8,33.6,2.1,3.8c1.7,27.5,8,68.7,29,99
	C49.9,128.7,77.7,146.6,109,153z"/>
<path class="st1" d="M319.8,102.8c21-30.3,27.3-71.4,29-99c-17.7,29.8-52.1,73-102.9,74.8c1.1,24.9-0.2,49.8-4,74.4
	C273.3,146.6,301.1,128.7,319.8,102.8z"/>
<g>
	<path class="st2" d="M300.6,175H58.8C57,108.2,111.2,54,178,54s121,54.2,121,121"/>
</g>
<path class="st3" d="M323.1,190"/>
<path class="st4" d="M296.9,217c10.7,1.1,20.3-6.7,21.4-17.5s-6.7-20.3-17.5-21.4"/>
<path class="st4" d="M57.8,178.1c-10.8,0.6-19,9.8-18.4,20.6c0.6,10.8,9.8,19,20.6,18.4"/>
<circle class="st5" cx="179.1" cy="219.6" r="11.9"/>
<g>
	<path class="st6" d="M66.8,174.2h-5.9C62.8,174.4,64.8,174.4,66.8,174.2z"/>
	<path class="st6" d="M247.3,174.2c8,9.9,10.8,20.6,10.8,20.6s22.8,89.7-22,79.9c0,0-19.4,44-56.9,19.6
		c-37.5,24.5-56.9-19.6-56.9-19.6c-44.9,9.8-22-79.9-22-79.9s2.8-10.7,10.8-20.6H68.9c-2.5,4.4-34.8,61.6-20.7,85.9
		c6.7,11.5,16.2,12,24.6,9.2c0,0-6.2,85.8,48.4,85.4c0,0,11.2,28,58.1,17.4c46.9,10.6,58.1-17.4,58.1-17.4
		c54.7,0.4,48.4-85.4,48.4-85.4c8.4,2.8,17.9,2.2,24.6-9.2c14.1-24.3-18.2-81.5-20.7-85.9L247.3,174.2L247.3,174.2z"/>
	<path class="st6" d="M297.6,174.2h-5.9C293.7,174.4,295.7,174.4,297.6,174.2z"/>
</g>
<g>
	<path class="st7" d="M139.2,220.9c-7.3,7.3-19.1,7.3-26.4,0s-7.3-19.1,0-26.4c7.3-7.3,19.1-7.3,26.4,0"/>
	<line class="st7" x1="120.3" y1="226.1" x2="120.3" y2="237"/>
	<line class="st7" x1="130.6" y1="226.1" x2="130.6" y2="237"/>
	<line class="st7" x1="119.5" y1="178.1" x2="119.5" y2="189"/>
	<line class="st7" x1="129.9" y1="178.1" x2="129.9" y2="189"/>
</g>
<g>
	<path class="st7" d="M250.8,220.9c-7.3,7.3-19.1,7.3-26.4,0c-7.3-7.3-7.3-19.1,0-26.4s19.1-7.3,26.4,0"/>
	<line class="st7" x1="231.9" y1="226.1" x2="231.9" y2="237"/>
	<line class="st7" x1="242.3" y1="226.1" x2="242.3" y2="237"/>
	<line class="st7" x1="231.2" y1="178.1" x2="231.2" y2="189"/>
	<line class="st7" x1="241.6" y1="178.1" x2="241.6" y2="189"/>
</g>
<path class="st8" d="M162,273.5L162,273.5L162,273.5L162,273.5L162,273.5L162,273.5C162,273.5,162,273.6,162,273.5
	c0,0.1,0,0.1,0,0.1l0,0l0,0l0,0l0,0l0,0l0,0l0,0l17.5,10.2h0.1h0.1l17.5-10.2l0,0l0,0l0,0l0,0l0,0l0,0l0,0l0,0l0,0l0,0l0,0l0,0l0,0
	l0,0l0,0l0,0l0,0l0,0l0,0l0,0l0,0l0,0l0,0l0,0l-17.5-28.7c0-0.1-0.1-0.1-0.2-0.1c-0.1,0-0.2,0-0.2,0.1L162,273.3l0,0l0,0
	C162,273.3,162,273.4,162,273.5C162,273.4,162,273.4,162,273.5C162,273.4,162,273.4,162,273.5C162,273.4,162,273.4,162,273.5
	C162,273.4,162,273.4,162,273.5L162,273.5L162,273.5C162,273.4,162,273.5,162,273.5z M179.7,283.4l-16.9-9.9l16.9-7.5l16.9,7.5
	L179.7,283.4z M179.7,245.2l16.9,27.7l-16.8-7.4c-0.1,0-0.1,0-0.2,0l-16.8,7.4L179.7,245.2z"/>
</svg>
