<?xml version="1.0" encoding="utf-8"?>
<!-- Generator: Adobe Illustrator 21.0.2, SVG Export Plug-In . SVG Version: 6.00 Build 0)  -->
<svg version="1.1" id="Layer_1" xmlns="http://www.w3.org/2000/svg" xmlns:xlink="http://www.w3.org/1999/xlink" x="0px" y="0px"
	 viewBox="0 0 300 300" style="enable-background:new 0 0 300 300;" xml:space="preserve">
<style type="text/css">
	.st0{fill:#4091D3;}
	.st1{fill:#FFFFFF;}
</style>
<circle class="st0" cx="150" cy="150" r="150"/>
<g>
	<path class="st1" d="M249.4,109.9c-0.2-3.4-1.2-6.7-2.9-9.7c-1.5-3-4.2-5.4-7.4-6.6c-3.2-1.6-6.8-2.4-10.4-2.3H93.5l-9.7,29h122.5
		l-19.3,59.3H64.5l-9.7,29h135.8c4-0.1,8-0.9,11.8-2.3c3.8-2.2,8.2-4.4,11.8-7.4c3.6-2.8,6.8-6.1,9.7-9.7c2.3-3.5,4.3-7.3,6-11.2
		l17.9-56.4C249.5,118,250.1,113.9,249.4,109.9L249.4,109.9z"/>
	<path class="st1" d="M132.1,136.5H60l-9.7,26.8h72.8L132.1,136.5z"/>
</g>
</svg>
