<?xml version="1.0" encoding="utf-8"?>
<!-- Generator: Adobe Illustrator 21.0.2, SVG Export Plug-In . SVG Version: 6.00 Build 0)  -->
<svg version="1.1" id="Layer_1" xmlns="http://www.w3.org/2000/svg" xmlns:xlink="http://www.w3.org/1999/xlink" x="0px" y="0px"
	 viewBox="0 0 300 300" style="enable-background:new 0 0 300 300;" xml:space="preserve">
<style type="text/css">
	.st0{fill:#4091D3;}
	.st1{fill:#FFFFFF;}
</style>
<circle class="st0" cx="150" cy="150" r="150"/>
<g id="Laag_3">
	<g id="Layer_1-2">
		<g id="Layer_1-3">
			<g id="_898344032">
				<path class="st1" d="M84.4,210.7l4.6,4.6c20.3,8.5,40.6,17.1,61,25.5v-37l-38-15.7l-15.7-38l15.7-38L84.4,89.3L59.2,150
					L84.4,210.7z"/>
				<path class="st1" d="M150,59.2c-20.3,8.4-40.7,17-61,25.5l-4.6,4.6L112,112l38-15.7V59.2z"/>
				<polygon class="st1" points="150,112 123.1,123.2 112,150 123.1,176.9 150,188 				"/>
				<path class="st1" d="M150,240.8c20.3-8.4,40.6-17,60.9-25.5l4.6-4.6l25.2-60.7l-25.2-60.7L188,112l15.7,38L188,188l-38,15.7
					L150,240.8L150,240.8z"/>
				<path class="st1" d="M215.6,89.3l-4.6-4.7c-20.4-8.4-40.7-16.9-61-25.4v37l38,15.7L215.6,89.3z"/>
				<polygon class="st1" points="150,188 176.9,176.9 188,150 176.9,123.2 150,112 				"/>
			</g>
		</g>
	</g>
</g>
</svg>
