<?xml version="1.0" encoding="utf-8"?>
<!-- Generator: Adobe Illustrator 21.0.2, SVG Export Plug-In . SVG Version: 6.00 Build 0)  -->
<svg version="1.1" id="Capa_1" xmlns="http://www.w3.org/2000/svg" xmlns:xlink="http://www.w3.org/1999/xlink" x="0px" y="0px"
	 viewBox="0 0 80 80" style="enable-background:new 0 0 80 80;" xml:space="preserve">
<style type="text/css">
	.st0{fill:#4091D3;}
</style>
<g>
	<g>
		<path class="st0" d="M29.3,63.5l-4,4c-3.5,3.5-9.2,3.5-12.7,0c-1.7-1.7-2.6-3.9-2.6-6.3s0.9-4.6,2.6-6.3l14.9-14.8
			c3.1-3.1,8.9-7.6,13.1-3.4c1.9,1.9,5.1,1.9,7,0c1.9-1.9,1.9-5.1,0-7c-7.2-7.1-17.8-5.8-27.1,3.4L5.5,47.9C2,51.5,0,56.2,0,61.2
			S2,71,5.5,74.5c3.7,3.7,8.5,5.5,13.3,5.5c4.8,0,9.7-1.8,13.3-5.5l4.1-4c1.9-1.9,2-5.1,0-7C34.4,61.6,31.2,61.5,29.3,63.5z M74.5,6
			c-7.7-7.7-18.5-8.1-25.7-1l-5,5c-1.9,1.9-2,5.1,0,7s5.1,2,7,0l5-5c3.7-3.7,8.6-2.2,11.7,1c1.7,1.7,2.6,3.9,2.6,6.3
			c0,2.4-0.9,4.6-2.6,6.3L51.6,41.4c-7.3,7.2-10.7,3.8-12.1,2.4c-1.9-1.9-5.1-1.9-7,0s-1.9,5.1,0,7c3.3,3.3,7.1,5,11.1,5
			c4.9,0,10.1-2.5,15-7.3l15.9-15.8C78,29.1,80,24.4,80,19.3C80,14.3,78,9.6,74.5,6z"/>
	</g>
</g>
</svg>
