<?xml version="1.0" encoding="utf-8"?>
<!-- Generator: Adobe Illustrator 21.0.2, SVG Export Plug-In . SVG Version: 6.00 Build 0)  -->
<svg version="1.1" id="Layer_1" xmlns="http://www.w3.org/2000/svg" xmlns:xlink="http://www.w3.org/1999/xlink" x="0px" y="0px"
	 viewBox="0 0 300 300" style="enable-background:new 0 0 300 300;" xml:space="preserve">
<style type="text/css">
	.st0{fill:#4091D3;}
	.st1{fill:#FFFFFF;}
</style>
<circle class="st0" cx="150" cy="150" r="150"/>
<g>
	<path class="st1" d="M78.1,72c-8.7,7.3-17.8,16.3-21.4,27.3c-4.2,13,1.7,26.2,7.3,37.8c5.6,11.8,11.8,23.4,17.2,35.5
		c4.2,9.6,10.1,20.9,8.7,31.6c-1.1,7.6-3.7,14.9-5.1,22.6c-1.1,5.1,3.7,0,5.4-1.4c9.9-8.5,20.6-18,24.5-31c2-6.5,0.8-12.4-1.4-18.6
		c-2.2-5.9-4.8-11.5-7.3-17.5c-5.4-11.8-11-23.7-16.6-35.5c-2.2-4.2-4.5-8.7-6.5-13.3c-2-4.8-3.1-9.9-3.4-15.2
		c-0.3-4.2-0.3-8.2,0.3-12.4c0.3-3.1,1.1-5.9,1.4-9C81.4,71.1,80,70.5,78.1,72L78.1,72z M207.1,72c-8.7,7.3-17.8,16.4-21.4,27.3
		c-4.2,13,1.7,26.2,7.3,37.8c5.6,11.8,11.8,23.4,17.2,35.5c4.2,9.6,10.1,20.9,8.7,31.6c-1.1,7.6-3.7,14.9-5.1,22.6
		c-1.1,5.1,3.7,0,5.4-1.4c9.9-8.5,20.6-18,24.5-31c2-6.5,0.8-12.4-1.4-18.6c-2.2-5.9-4.8-11.5-7.3-17.5c-5.4-11.8-11-23.7-16.6-35.5
		c-2.2-4.2-4.5-8.7-6.5-13.3c-2-4.8-3.1-9.9-3.4-15.2c-0.3-4.2-0.3-8.2,0.3-12.4c0.3-3.1,1.1-5.9,1.4-9
		C210.5,71.1,209.1,70.5,207.1,72L207.1,72z"/>
	<path class="st1" d="M140.6,50.5c-9.9,8.2-20.6,18-26.5,29.6c-4.2,8.2-4.8,16.6-2.5,25.1c2.8,10.1,6.8,20.3,11,30.2
		c8.2,18.9,18.9,36.6,26.8,55.8c2.8,6.8,5.9,14.4,6.5,22c0.6,9.3-2.5,19.2-5.1,27.9c-0.6,2.5-2.2,5.9-2,8.5c0.3,2,1.4,1.1,2.5,0.3
		c4.8-3.7,9.6-7.9,13.8-12.1c11.5-11,24.8-25.7,23.7-42.8c-0.6-7.1-3.9-13.8-6.8-20.3c-3.1-7.6-6.5-14.9-9.9-22.3
		c-6.2-13.8-12.7-27.3-19.4-40.9c-2.2-4.8-5.1-9.3-6.8-14.1c-2.5-6.5-3.7-13.3-3.9-20c-0.3-5.1,0-10.4,0.6-15.5
		c0.3-3.4,1.4-6.5,1.4-9.9C144.9,48.8,143.2,48.6,140.6,50.5L140.6,50.5z"/>
</g>
</svg>
