<?xml version="1.0" encoding="utf-8"?>
<!-- Generator: Adobe Illustrator 21.0.2, SVG Export Plug-In . SVG Version: 6.00 Build 0)  -->
<svg version="1.1" id="Layer_1" xmlns="http://www.w3.org/2000/svg" xmlns:xlink="http://www.w3.org/1999/xlink" x="0px" y="0px"
	 viewBox="0 0 300 300" style="enable-background:new 0 0 300 300;" xml:space="preserve">
<style type="text/css">
	.st0{fill:#4091D3;}
	.st1{fill:#FFFFFF;}
</style>
<path class="st0" d="M150,0c82.8,0,150,67.2,150,150s-67.2,150-150,150S0,232.9,0,150S67.2,0,150,0"/>
<path class="st1" d="M168.5,130v-22.3h51v-34H80.6v34h51V130C90.2,131.9,59,140.1,59,150s31.2,18.1,72.7,20v71.5h36.9v-71.5
	c41.4-1.9,72.5-10.1,72.5-20C241,140.1,209.9,131.9,168.5,130 M168.5,163.9L168.5,163.9c-1,0-6.4,0.4-18.3,0.4
	c-9.5,0-16.2-0.3-18.6-0.4v0c-36.6-1.6-64-8-64-15.6c0-7.6,27.4-14,64-15.6v24.9c2.4,0.2,9.3,0.6,18.7,0.6c11.4,0,17.1-0.5,18.2-0.6
	v-24.9c36.6,1.6,63.9,8,63.9,15.6C232.4,155.8,205.1,162.2,168.5,163.9"/>
</svg>
