<?xml version="1.0" encoding="utf-8"?>
<!-- Generator: Adobe Illustrator 21.0.2, SVG Export Plug-In . SVG Version: 6.00 Build 0)  -->
<svg version="1.1" id="Layer_1" xmlns="http://www.w3.org/2000/svg" xmlns:xlink="http://www.w3.org/1999/xlink" x="0px" y="0px"
	 viewBox="0 0 300 300" style="enable-background:new 0 0 300 300;" xml:space="preserve">
<style type="text/css">
	.st0{fill:#4091D3;}
	.st1{fill:#FFFFFF;}
</style>
<circle class="st0" cx="150" cy="150" r="150"/>
<g>
	<path class="st1" d="M88.3,240.8c11.5,8.2,32.6-2,47.5-22.7c0.2-0.3,0.4-0.5,0.6-0.8c8.2-11.7,5.4-28-6.3-36.3s-27.8-5.5-36,6.2
		c-0.2,0.3-0.4,0.6-0.6,0.9C79.2,209.2,76.8,232.6,88.3,240.8"/>
	<path class="st1" d="M100,225.1c8,5.5,22.8-1.5,33.3-15.7c0.2-0.2,0.3-0.4,0.5-0.6c5.7-7.9,3.9-18.9-4-24.6
		c-0.1-0.1-0.2-0.1-0.3-0.2c-8.1-5.6-19.4-3.7-25.2,4.4c-0.1,0.2-0.3,0.4-0.4,0.6C93.8,203.5,92,219.6,100,225.1"/>
	<g>
		<path class="st1" d="M50.4,157.9c-1.2,1.6-1.8,3.9,1.5,2.9c9.3-2.9,30.5-6.3,55.1,10.8c33.2,23,30.5-36.7,30.5-36.7
			C129.6,129.4,89.9,107.2,50.4,157.9 M176.7,248c0.1,3.4,2.1,2,3.2,0.4c34.2-53.4,0.1-82.9-7.6-88.4c0,0-56.8,17.3-24.1,40.4
			C172.4,217.6,176.3,238.3,176.7,248"/>
	</g>
	<path class="st1" d="M142.2,209.5c6.5,4.8,10.4,5.6,15.1-0.2c4.7-5.8,29.5-34.9,54.3-67s9.7-87.2,6.7-89.4l0,0l0-0.1
		c-3-2.2-57.6,1.5-78.1,36.7s-38.2,69.5-41.9,76.1s-1.6,10.2,4.9,15c3,2.2,11.3,8.3,19.5,14.4S139.2,207.3,142.2,209.5"/>
	<path class="st0" d="M149.5,216.6h-0.3c-3-0.1-6-1.4-10.3-4.4c-3-2.1-11.4-8-19.7-14l-0.5-0.3l-13.1-9.3l-7.1-5
		c-4.3-3-6.5-5.5-7.6-8.3c-1.7-4.3,0.1-8.3,1.6-10.9c0.8-1.4,2.2-4,4.2-7.5c7.3-13.2,22.5-40.5,39.3-68.3c6-10,15.3-18.4,27.5-24.9
		c6.4-3.5,17.2-8.2,31.8-11.3c5.8-1.2,11.7-2,16.7-2.3c7.6-0.4,9,0.5,9.7,1l0.1,0c0.7,0.5,2,1.6,4.1,8.8c1.4,4.8,2.7,10.8,3.5,16.7
		c2.2,16.2,3.4,46.6-14,68.1c-20.3,25.2-40.9,48.8-50.8,60.2c-2.7,3.1-4.6,5.3-5.6,6.5c-1.5,1.8-2.9,3-4.4,3.9
		C153,216.1,151.2,216.6,149.5,216.6 M215.6,56.4c-5.4,0-17,1.1-30.2,5.1c-14.3,4.4-33.5,13.2-43.9,30.3
		c-16.7,27.6-31.9,54.9-39.2,68.1c-2,3.6-3.4,6.2-4.3,7.6c-1.7,3-1.6,4.5-1.2,5.4c0.6,1.5,2.3,3.1,5.3,5.3l7.1,5l13.1,9.3l0.5,0.3
		c8.3,5.9,16.7,11.8,19.7,14c6.3,4.5,8.2,4.1,11.4,0.3c1-1.2,3-3.5,5.7-6.6c9.9-11.3,30.3-34.8,50.6-60
		c12.6-15.6,14.4-36.8,13.7-51.8c-0.8-16.3-4.6-29.2-6.2-32.4C217.1,56.4,216.3,56.4,215.6,56.4"/>
	<path class="st0" d="M162.2,130.4c10.4,7.3,24.7,4.8,31.9-5.5s4.8-24.7-5.5-32s-24.7-4.8-31.9,5.5S151.8,123.1,162.2,130.4"/>
	<path class="st1" d="M175.3,137.8c-14.5,0-26.1-11.8-26.1-26.3c0-5.4,1.7-10.6,4.8-15c8.3-11.8,24.6-14.6,36.4-6.3c0,0,0,0,0,0
		c11.8,8.3,14.6,24.7,6.3,36.5c-4,5.7-10.1,9.5-16.9,10.7C178.4,137.7,176.8,137.8,175.3,137.8 M175.4,92c-1.1,0-2.3,0.1-3.4,0.3
		c-5.1,0.9-9.7,3.8-12.7,8.1c-6.2,8.9-4.1,21.2,4.8,27.5c8.9,6.3,21.2,4.1,27.4-4.7c0,0,0,0,0,0c6.3-8.9,4.1-21.2-4.8-27.5
		C183.4,93.2,179.5,92,175.4,92"/>
</g>
</svg>
