<?xml version="1.0" encoding="utf-8"?>
<!-- Generator: Adobe Illustrator 21.0.2, SVG Export Plug-In . SVG Version: 6.00 Build 0)  -->
<svg version="1.1" id="Layer_1" xmlns="http://www.w3.org/2000/svg" xmlns:xlink="http://www.w3.org/1999/xlink" x="0px" y="0px"
	 viewBox="0 0 300 300" style="enable-background:new 0 0 300 300;" xml:space="preserve">
<style type="text/css">
	.st0{fill:#4091D3;}
</style>
<path class="st0" d="M150,0C67.2,0,0,67.2,0,150c0,16.6,2.7,32.5,7.6,47.4h44.9V71.2l97.5,97.5l97.5-97.5v126.2h44.9
	c5-14.9,7.6-30.8,7.6-47.4C300,67.2,232.8,0,150,0"/>
<path class="st0" d="M127.6,191.1L85,148.5V228H21.8c26.3,43.2,73.9,72,128.2,72s101.8-28.8,128.2-72H215v-79.4l-42.6,42.6
	L150,213.5L127.6,191.1L127.6,191.1L127.6,191.1z"/>
</svg>
