<?xml version="1.0" encoding="utf-8"?>
<!-- Generator: Adobe Illustrator 21.0.2, SVG Export Plug-In . SVG Version: 6.00 Build 0)  -->
<svg version="1.1" id="Layer_1" xmlns="http://www.w3.org/2000/svg" xmlns:xlink="http://www.w3.org/1999/xlink" x="0px" y="0px"
	 viewBox="0 0 300 300" style="enable-background:new 0 0 300 300;" xml:space="preserve">
<style type="text/css">
	.st0{fill:#4091D3;}
	.st1{fill:#FFFFFF;}
</style>
<circle class="st0" cx="150" cy="150" r="150"/>
<path class="st1" d="M169.8,55.4c-13.1,7.7-20.9,21.7-20.9,36.4c0,7.7,3.1,15.5,7,22.4c3.1,6.2,4.6,17-6.2,22.4
	c-7.7,4.6-17.8,1.5-22.4-6.2c-4.6-6.2-10-12.4-17-17c-13.1-7.7-28.6-7.7-41.8,0s-20.9,21.7-20.9,36.4c0,14.7,7.7,28.6,20.9,36.4
	c13.1,7.7,28.6,7.7,41.8,0c7-3.9,12.4-10,16.2-17c3.1-5.4,11.6-12.4,22.4-6.2c7.7,4.6,10,14.7,6.2,22.4c-3.9,7-6.2,14.7-6.2,22.4
	c0,14.7,7.7,28.6,20.9,36.4c13.1,7.7,28.6,7.7,41.8,0c13.1-7.7,20.9-21.7,20.9-36.4s-7.7-28.6-20.9-36.4c-7-3.9-14.7-5.4-23.2-5.4
	c-7,0-16.2-4.6-16.2-16.2c0-9.3,7-16.2,16.2-16.2c7.7,0,16.2-1.5,23.2-5.4c13.1-7.7,20.9-21.7,20.9-36.4s-7.7-28.6-20.9-36.4
	c-6.2-3.9-13.9-5.4-20.9-5.4C183.7,50,176,51.5,169.8,55.4"/>
</svg>
