<?xml version="1.0" encoding="utf-8"?>
<!-- Generator: Adobe Illustrator 21.0.2, SVG Export Plug-In . SVG Version: 6.00 Build 0)  -->
<svg version="1.1" id="Layer_1" xmlns="http://www.w3.org/2000/svg" xmlns:xlink="http://www.w3.org/1999/xlink" x="0px" y="0px"
	 viewBox="0 0 300 300" style="enable-background:new 0 0 300 300;" xml:space="preserve">
<style type="text/css">
	.st0{fill:#4091D3;}
	.st1{fill:#FFFFFF;}
</style>
<path class="st0" d="M150,0c82.8,0,150,67.2,150,150s-67.2,150-150,150S0,232.9,0,150S67.2,0,150,0"/>
<path class="st1" d="M141,187.3h65V220h-40c0.7,9.3,1,18,1.7,27.3H134v-27h-40c0-10.7-1.3-21.3,0.7-31.3c1-5.3,7-10,10.7-14.7
	c12.7-15,25.3-29.7,38.3-44.7c5-5.7,10-11,15.7-17.3H96.9V79.7h37V52.4h32.3V79h40.3c0,11,1.3,21.7-0.7,31.7c-1,5.3-7,10-11,14.7
	c-12.7,15-25.3,29.7-38.3,44.7C151.7,176,146.7,181.3,141,187.3L141,187.3z"/>
</svg>
